<svg width="82" height="25" viewBox="0 0 82 25" fill="none" xmlns="http://www.w3.org/2000/svg">
<path d="M41.1663 2.46875C38.2588 2.46875 35.8934 4.83416 35.8934 7.74162C35.8934 10.6491 38.2588 13.0145 41.1663 13.0145C44.0738 13.0145 46.4392 10.6491 46.4392 7.74162C46.4392 4.83416 44.0738 2.46875 41.1663 2.46875ZM41.1663 11.8427C38.9049 11.8427 37.0652 10.003 37.0652 7.74162C37.0652 5.48026 38.9049 3.6405 41.1663 3.6405C43.4277 3.6405 45.2674 5.48026 45.2674 7.74162C45.2674 10.003 43.4277 11.8427 41.1663 11.8427Z" fill="#646464" stroke="#646464" stroke-width="0.4"/>
<path fill-rule="evenodd" clip-rule="evenodd" d="M35.6935 7.74238C35.6935 4.72447 38.1484 2.26953 41.1663 2.26953C44.1842 2.26953 46.6392 4.72447 46.6392 7.74238C46.6392 10.7603 44.1842 13.2152 41.1663 13.2152C38.1484 13.2152 35.6935 10.7603 35.6935 7.74238ZM41.1663 2.66949C38.3693 2.66949 36.0934 4.94536 36.0934 7.74238C36.0934 10.5394 38.3693 12.8153 41.1663 12.8153C43.9633 12.8153 46.2392 10.5394 46.2392 7.74238C46.2392 4.94536 43.9633 2.66949 41.1663 2.66949ZM41.1663 3.84124C39.0154 3.84124 37.2652 5.59146 37.2652 7.74238C37.2652 9.89329 39.0154 11.6435 41.1663 11.6435C43.3172 11.6435 45.0675 9.89329 45.0675 7.74238C45.0675 5.59146 43.3172 3.84124 41.1663 3.84124ZM36.8652 7.74238C36.8652 5.37057 38.7945 3.44128 41.1663 3.44128C43.5381 3.44128 45.4674 5.37057 45.4674 7.74238C45.4674 10.1142 43.5381 12.0435 41.1663 12.0435C38.7945 12.0435 36.8652 10.1142 36.8652 7.74238Z" fill="#646464"/>
<path d="M47.7267 16.4585C46.2832 14.9928 44.3694 14.1855 42.338 14.1855H39.9945C37.9632 14.1855 36.0494 14.9928 34.6058 16.4585C33.1693 17.9171 32.3782 19.8425 32.3782 21.88C32.3782 22.2036 32.6405 22.4659 32.964 22.4659H49.3685C49.6921 22.4659 49.9544 22.2036 49.9544 21.88C49.9544 19.8425 49.1633 17.9171 47.7267 16.4585ZM33.5757 21.2942C33.8692 17.9708 36.636 15.3573 39.9945 15.3573H42.338C45.6966 15.3573 48.4633 17.9708 48.7569 21.2942H33.5757Z" fill="#646464" stroke="#646464" stroke-width="0.4"/>
<path fill-rule="evenodd" clip-rule="evenodd" d="M34.4634 16.319C35.944 14.8156 37.9089 13.9863 39.9946 13.9863H42.3381C44.4238 13.9863 46.3886 14.8156 47.8693 16.319C49.3424 17.8148 50.1544 19.7904 50.1544 21.8808C50.1544 22.3148 49.8026 22.6666 49.3685 22.6666H32.9641C32.5301 22.6666 32.1782 22.3148 32.1782 21.8808C32.1782 19.7904 32.9902 17.8148 34.4634 16.319ZM39.9946 14.3863C38.0176 14.3863 36.1549 15.1715 34.7483 16.5996C33.3485 18.021 32.5782 19.896 32.5782 21.8808C32.5782 22.0939 32.751 22.2667 32.9641 22.2667H49.3685C49.5817 22.2667 49.7544 22.0939 49.7544 21.8808C49.7544 19.896 48.9842 18.021 47.5843 16.5996C46.1777 15.1715 44.3151 14.3863 42.3381 14.3863H39.9946ZM33.7979 21.0949H48.5347C48.1514 17.9762 45.5165 15.558 42.3381 15.558H39.9946C36.8161 15.558 34.1812 17.9762 33.7979 21.0949ZM33.3765 21.2773C33.6789 17.8538 36.5294 15.1581 39.9946 15.1581H42.3381C45.8032 15.1581 48.6537 17.8538 48.9561 21.2773L48.9753 21.4949H33.3573L33.3765 21.2773Z" fill="#646464"/>
</svg>
