<svg width="84" height="25" viewBox="0 0 84 25" fill="none" xmlns="http://www.w3.org/2000/svg">
<path d="M39.8756 17.4541C39.6409 17.4541 39.4507 17.6538 39.4507 17.9001C39.4507 18.1464 39.6409 18.3461 39.8756 18.3461H44.1252C44.3598 18.3461 44.5501 18.1464 44.5501 17.9001C44.5501 17.6538 44.3598 17.4541 44.1252 17.4541H39.8756Z" fill="#646464" stroke="#646464" stroke-width="0.6"/>
<path fill-rule="evenodd" clip-rule="evenodd" d="M43.8436 4.1413C42.7628 3.24587 41.2378 3.24587 40.1571 4.1413L34.6327 8.71854C33.9181 9.31058 33.5012 10.2134 33.5012 11.1689V18.3459C33.5012 20.0701 34.833 21.4678 36.4759 21.4678H47.5247C49.1676 21.4678 50.4994 20.0701 50.4994 18.3459V11.1689C50.4994 10.2134 50.0825 9.31058 49.368 8.71854L43.8436 4.1413ZM40.6837 4.8414C41.4557 4.2018 42.5449 4.2018 43.3169 4.8414L48.8413 9.41863C49.3517 9.84152 49.6495 10.4864 49.6495 11.1689V18.3459C49.6495 19.5774 48.6982 20.5758 47.5247 20.5758H36.4759C35.3024 20.5758 34.3511 19.5774 34.3511 18.3459V11.1689C34.3511 10.4864 34.6489 9.84152 35.1593 9.41863L40.6837 4.8414Z" fill="#646464" stroke="#646464" stroke-width="0.6"/>
</svg>
