<svg width="25" height="25" viewBox="0 0 25 25" fill="none" xmlns="http://www.w3.org/2000/svg">
<path d="M4.70989 14.1391C4.5718 14.1391 4.44459 14.0528 4.39845 13.9188C4.07153 12.9748 3.90576 11.9907 3.90576 10.9946C3.90576 9.85601 4.11602 8.75428 4.53028 7.71902C5.77404 4.58164 8.6445 2.41304 12.0212 2.06078C12.3372 2.02657 12.6661 2.00897 12.9973 2.00897C14.7938 2.00897 16.5332 2.52807 18.0277 3.51021C18.8932 4.08079 19.6518 4.79019 20.2823 5.61885C20.9424 6.49314 21.4271 7.45736 21.7234 8.48577C21.9633 9.29325 22.0853 10.1382 22.0853 10.9946C22.0853 11.9976 21.9175 12.9807 21.5873 13.9166C21.5336 14.0681 21.3757 14.157 21.2169 14.1297C21.1447 14.1166 21.0669 14.1098 20.9862 14.1098H5.0088C4.92377 14.1098 4.84698 14.117 4.78041 14.1313C4.75669 14.1368 4.73329 14.1391 4.70989 14.1391ZM12.9973 2.66069C12.6902 2.66069 12.3857 2.67699 12.0917 2.70859C8.95956 3.03543 6.29738 5.04697 5.14293 7.9582C4.75899 8.91754 4.56455 9.93878 4.56455 10.9946C4.56455 11.8317 4.69077 12.6597 4.94025 13.4594C4.96266 13.4587 4.98573 13.4584 5.0088 13.4584H20.9859C21.0063 13.4584 21.0261 13.4587 21.0462 13.4591C21.2983 12.6656 21.4258 11.8379 21.4258 10.9946C21.4258 10.2001 21.3128 9.41708 21.0897 8.66662C20.8148 7.71218 20.3656 6.819 19.7543 6.00923C19.1697 5.24053 18.4654 4.58196 17.6619 4.05244C16.2768 3.14231 14.6636 2.66069 12.9973 2.66069Z" fill="#2E2E2E" stroke="#2E2E2E" stroke-width="0.3"/>
<path d="M9.04951 14.1101H7.17431C7.01414 14.1101 6.87738 13.9961 6.84969 13.84C6.81839 13.6634 6.79597 13.4864 6.78279 13.3144C6.73402 12.677 6.31976 12.1778 5.98064 11.8711C5.70315 11.6254 5.56078 11.2527 5.60231 10.8763C5.73314 9.72372 5.40128 8.78361 4.61561 8.08105C4.51377 7.99014 4.47983 7.84644 4.52992 7.72033C5.77401 4.58164 8.64448 2.41304 12.0211 2.06079C12.0937 2.05362 12.1708 2.07089 12.234 2.11097C12.9505 2.5675 13.5305 3.04749 13.8907 3.36944C14.097 3.55616 14.1854 3.82695 14.1287 4.09546C14.0727 4.36103 13.8845 4.57187 13.6251 4.65952C13.6248 4.65952 13.6248 4.65952 13.6245 4.65985C13.2682 4.77911 12.8269 4.81528 12.3145 4.76706C11.7638 4.71231 11.3136 4.88828 10.9695 5.28941C10.7214 5.58268 10.3585 5.74822 9.94887 5.75376C9.46607 5.75767 8.72456 5.96622 7.92109 6.93924C7.65843 7.25695 7.56385 7.55609 7.63141 7.85426C7.80113 8.60341 8.90977 9.17823 9.24559 9.33659C9.32469 9.3757 9.41795 9.40665 9.52176 9.42849C10.2132 9.58718 10.7738 9.94139 11.1491 10.454C11.3446 10.7195 11.4213 11.0607 11.3597 11.3895C11.2974 11.7209 11.0997 12.0142 10.8173 12.1947C10.1226 12.6428 9.63019 13.2179 9.35534 13.9039C9.3059 14.0283 9.18463 14.1101 9.04951 14.1101ZM7.45872 13.4584H8.832C9.16914 12.7356 9.71555 12.1276 10.4587 11.6486C10.5902 11.5642 10.6825 11.4267 10.7118 11.2706C10.7411 11.1148 10.7072 10.961 10.6162 10.8369C10.3312 10.4478 9.9146 10.1881 9.37841 10.0646C9.22483 10.032 9.08114 9.98375 8.9569 9.92217C8.44476 9.6807 7.21682 9.00454 6.98844 7.99633C6.8754 7.49711 7.01777 7.00246 7.41093 6.5267C8.37621 5.35817 9.32007 5.1066 9.94228 5.10172C10.0919 5.09976 10.3061 5.05772 10.466 4.86938C10.8061 4.4728 11.4082 4.02149 12.379 4.11794C12.8978 4.16715 13.228 4.10393 13.4125 4.04234C13.461 4.02605 13.4781 3.98955 13.4844 3.96186C13.4883 3.9423 13.493 3.89212 13.4481 3.85139C13.1239 3.5617 12.6097 3.13515 11.9753 2.72131C8.96679 3.07649 6.40644 4.98962 5.22628 7.75715C5.83168 8.36716 6.43544 9.3845 6.2578 10.9476C6.23935 11.1119 6.30295 11.281 6.42324 11.3876C6.85299 11.7763 7.37534 12.415 7.44026 13.2645C7.44422 13.3287 7.45081 13.3932 7.45872 13.4584Z" fill="#2E2E2E"/>
<path d="M13.5187 4.35126H13.522M9.04951 14.1101H7.17431C7.01414 14.1101 6.87738 13.9961 6.84969 13.84C6.81839 13.6634 6.79598 13.4864 6.78279 13.3144C6.73402 12.677 6.31976 12.1778 5.98064 11.8711C5.70315 11.6254 5.56078 11.2527 5.60231 10.8763C5.73314 9.72372 5.40128 8.78361 4.61561 8.08105C4.51377 7.99014 4.47983 7.84644 4.52992 7.72033C5.77401 4.58164 8.64448 2.41304 12.0211 2.06079C12.0937 2.05362 12.1708 2.07089 12.234 2.11097C12.9505 2.5675 13.5305 3.04749 13.8907 3.36944C14.097 3.55616 14.1854 3.82695 14.1287 4.09546C14.0727 4.36103 13.8845 4.57187 13.6251 4.65952C13.6248 4.65952 13.6248 4.65952 13.6245 4.65985C13.2682 4.77911 12.8269 4.81528 12.3145 4.76706C11.7638 4.71231 11.3136 4.88828 10.9695 5.28941C10.7214 5.58268 10.3585 5.74822 9.94887 5.75376C9.46607 5.75767 8.72456 5.96622 7.92109 6.93924C7.65843 7.25695 7.56385 7.55609 7.63141 7.85426C7.80113 8.60341 8.90977 9.17823 9.24559 9.33659C9.32469 9.3757 9.41795 9.40665 9.52176 9.42849C10.2132 9.58718 10.7738 9.94139 11.1491 10.454C11.3446 10.7195 11.4213 11.0607 11.3597 11.3895C11.2974 11.7209 11.0997 12.0142 10.8173 12.1947C10.1226 12.6428 9.63019 13.2179 9.35534 13.9039C9.3059 14.0283 9.18463 14.1101 9.04951 14.1101ZM7.45872 13.4584H8.832C9.16914 12.7356 9.71555 12.1276 10.4587 11.6486C10.5902 11.5642 10.6825 11.4267 10.7118 11.2706C10.7411 11.1148 10.7072 10.961 10.6162 10.8369C10.3312 10.4478 9.9146 10.1881 9.37841 10.0646C9.22483 10.032 9.08114 9.98375 8.9569 9.92217C8.44476 9.6807 7.21682 9.00454 6.98844 7.99633C6.8754 7.49711 7.01777 7.00246 7.41093 6.5267C8.37621 5.35817 9.32007 5.1066 9.94228 5.10171C10.0919 5.09976 10.3061 5.05772 10.466 4.86938C10.8061 4.4728 11.4082 4.02149 12.379 4.11794C12.8978 4.16715 13.228 4.10393 13.4125 4.04234C13.461 4.02605 13.4781 3.98955 13.4844 3.96186C13.4883 3.9423 13.493 3.89212 13.4481 3.85139C13.1239 3.5617 12.6097 3.13515 11.9753 2.72131C8.96679 3.07649 6.40644 4.98962 5.22628 7.75715C5.83168 8.36716 6.43544 9.3845 6.2578 10.9476C6.23935 11.1119 6.30295 11.281 6.42324 11.3876C6.85299 11.7763 7.37534 12.415 7.44026 13.2645C7.44422 13.3287 7.45081 13.3932 7.45872 13.4584Z" stroke="#2E2E2E" stroke-width="0.3"/>
<path d="M21.2762 14.1349C21.2564 14.1349 21.2367 14.1332 21.2166 14.1297C21.1444 14.1166 21.0666 14.1098 20.9859 14.1098H15.4654C15.2983 14.1098 15.1579 13.9866 15.1381 13.8227C15.0775 13.3212 15.3494 12.8454 15.8137 12.6388C15.8266 12.633 15.8401 12.6281 15.8536 12.6242C15.8988 12.5952 15.911 12.5535 15.9139 12.5294C15.9179 12.501 15.9159 12.4463 15.8609 12.401C15.6275 12.2152 15.3692 11.9682 15.0508 11.6267C14.7163 11.267 14.5489 10.7984 14.5786 10.3067C14.6085 9.81592 14.8415 9.3519 15.2176 9.03386C15.824 8.51118 16.5121 8.05041 17.2599 7.66622C17.5136 7.53946 17.8023 7.53131 18.0571 7.64308C18.3118 7.75518 18.5006 7.97416 18.5748 8.24397C18.5936 8.3199 18.6193 8.38344 18.6447 8.44926C18.7732 8.78034 19.0339 9.01463 19.369 9.11402C19.7325 9.22188 20.133 9.15638 20.4404 8.93805C20.7038 8.75199 20.9526 8.55028 21.1796 8.33814C21.263 8.26026 21.38 8.23028 21.4921 8.26059C21.6025 8.29024 21.6898 8.37464 21.7221 8.48348C21.9623 9.29324 22.0846 10.1385 22.0846 10.9949C22.0846 11.9979 21.9169 12.981 21.5866 13.9169C21.5402 14.0492 21.414 14.1349 21.2762 14.1349ZM15.846 13.4584H20.9859C21.0063 13.4584 21.0261 13.4587 21.0462 13.459C21.2983 12.6656 21.4258 11.8379 21.4258 10.9946C21.4258 10.3757 21.3573 9.76346 21.2215 9.16811C21.093 9.27141 20.9605 9.37177 20.8244 9.46758C20.3528 9.80223 19.7378 9.90325 19.1802 9.73804C18.648 9.58032 18.2314 9.2033 18.0379 8.70409C17.9935 8.59003 17.9595 8.49977 17.9364 8.40592C17.9088 8.30556 17.8323 8.25766 17.7891 8.23876C17.7466 8.22018 17.6613 8.19672 17.5607 8.24658C17.0816 8.4926 16.3578 8.91655 15.6483 9.52753C15.4015 9.73641 15.2561 10.0261 15.2364 10.3461C15.2172 10.6596 15.3237 10.9577 15.5356 11.1858C15.8309 11.5029 16.0668 11.729 16.2778 11.8969C16.4963 12.0758 16.6034 12.343 16.5674 12.6141C16.5319 12.8836 16.3598 13.1133 16.1074 13.228C16.0912 13.2355 16.0744 13.2417 16.0576 13.2463C15.9657 13.2938 15.8925 13.3691 15.846 13.4584Z" fill="#2E2E2E" stroke="#2E2E2E" stroke-width="0.3"/>
<path d="M19.0088 6.26374C18.0528 6.26374 17.2012 5.97405 16.5908 5.68632C16.343 5.56836 16.1805 5.32787 16.1654 5.05806C16.1499 4.78727 16.2853 4.52951 16.5187 4.38483C16.8713 4.17563 17.2401 3.89343 17.6201 3.54281C17.7324 3.43951 17.9008 3.42615 18.0277 3.5099C18.8964 4.08243 19.6551 4.79248 20.2832 5.62017C20.3495 5.7075 20.3673 5.82155 20.3304 5.92452C20.2938 6.02717 20.2074 6.10505 20.1003 6.13177C19.7269 6.22464 19.3608 6.26374 19.0088 6.26374ZM17.8735 4.19551C17.5275 4.49725 17.189 4.74686 16.8637 4.9401C16.8291 4.9616 16.8222 4.9968 16.8235 5.02156C16.8252 5.046 16.8351 5.07891 16.8759 5.09847C17.5037 5.39467 18.4189 5.69479 19.4162 5.59084C18.9614 5.06425 18.4443 4.59664 17.8735 4.19551Z" fill="#2E2E2E" stroke="#2E2E2E" stroke-width="0.3"/>
<path d="M20.9859 22.009H5.00883C3.89986 22.009 2.99719 21.1168 2.99719 20.0199V15.4471C2.99719 14.4819 3.69322 13.6598 4.65257 13.4923C4.75276 13.4705 4.87667 13.4584 5.0085 13.4584H20.9856C21.1062 13.4584 21.2238 13.4685 21.3349 13.4887C22.2972 13.6555 22.9972 14.4796 22.9972 15.4471V20.0203C22.9975 21.1168 22.0949 22.009 20.9859 22.009ZM5.00883 14.1101C4.9238 14.1101 4.84701 14.1173 4.78044 14.1316C4.12396 14.2467 3.65664 14.7987 3.65664 15.4471V20.0203C3.65664 20.7577 4.26336 21.3576 5.00916 21.3576H20.9862C21.732 21.3576 22.3387 20.7577 22.3387 20.0203V15.4471C22.3387 14.7964 21.8678 14.2427 21.2195 14.13C21.1451 14.1166 21.0673 14.1098 20.9865 14.1098H5.00883V14.1101Z" fill="#2E2E2E" stroke="#2E2E2E" stroke-width="0.3"/>
<path d="M6.60813 16.3207L8.01469 18.4255V16.3012C8.01469 16.163 8.04468 16.0597 8.10466 15.9906C8.16464 15.9216 8.24538 15.887 8.34722 15.887C8.45235 15.887 8.5354 15.9216 8.59603 15.9906C8.65667 16.0597 8.68732 16.1633 8.68732 16.3012V19.1098C8.68732 19.4232 8.55583 19.58 8.29317 19.58C8.22759 19.58 8.16827 19.5705 8.11587 19.552C8.06347 19.5334 8.01403 19.5037 7.96789 19.463C7.92176 19.4223 7.87924 19.375 7.83969 19.3206C7.80015 19.2662 7.76093 19.2105 7.72138 19.1538L6.3491 17.0735V19.1658C6.3491 19.3024 6.31713 19.4053 6.25286 19.4751C6.18893 19.5448 6.10654 19.5797 6.00635 19.5797C5.90287 19.5797 5.81982 19.5445 5.75754 19.4738C5.69525 19.403 5.66394 19.3004 5.66394 19.1655V16.4103C5.66394 16.2934 5.67712 16.2018 5.70349 16.135C5.7348 16.062 5.78654 16.0024 5.85871 15.9561C5.93088 15.9098 6.00899 15.8867 6.0927 15.8867C6.15828 15.8867 6.21463 15.8971 6.26143 15.9183C6.30823 15.9395 6.34943 15.9678 6.38469 16.0037C6.41995 16.0395 6.4562 16.0858 6.49311 16.1425C6.53002 16.1992 6.56858 16.2591 6.60813 16.3207Z" fill="#2E2E2E" stroke="#2E2E2E" stroke-width="0.3"/>
<path d="M11.8679 16.5058H10.2197V17.3827H11.7374C11.8491 17.3827 11.9325 17.4075 11.9875 17.457C12.0425 17.5065 12.0699 17.572 12.0699 17.6532C12.0699 17.7343 12.0429 17.8005 11.9885 17.8516C11.9344 17.9028 11.8504 17.9282 11.7374 17.9282H10.2197V18.9439H11.9246C12.0396 18.9439 12.1262 18.9703 12.1846 19.0231C12.2429 19.0759 12.2719 19.1463 12.2719 19.2339C12.2719 19.3183 12.2429 19.3871 12.1846 19.4399C12.1262 19.4927 12.0396 19.519 11.9246 19.519H9.93632C9.77715 19.519 9.66246 19.4842 9.59259 19.4144C9.52273 19.3447 9.48779 19.2316 9.48779 19.0759V16.3914C9.48779 16.2875 9.50328 16.2028 9.53459 16.1369C9.5659 16.0711 9.61467 16.0232 9.68124 15.9932C9.74782 15.9633 9.83284 15.9483 9.93632 15.9483H11.8679C11.9845 15.9483 12.0712 15.9737 12.1279 16.0249C12.1846 16.076 12.2129 16.1431 12.2129 16.2259C12.2129 16.3103 12.1846 16.3781 12.1279 16.4292C12.0709 16.4804 11.9842 16.5058 11.8679 16.5058Z" fill="#2E2E2E" stroke="#2E2E2E" stroke-width="0.3"/>
<path d="M15.4104 18.9563L14.8265 16.8154L14.2352 18.9566C14.1891 19.1189 14.1528 19.2356 14.1255 19.3063C14.0985 19.377 14.051 19.4402 13.9838 19.4963C13.9165 19.5523 13.8269 19.5803 13.7152 19.5803C13.6249 19.5803 13.5504 19.5637 13.4921 19.5305C13.4337 19.4972 13.3866 19.45 13.3504 19.3891C13.3141 19.3281 13.2848 19.2558 13.2617 19.1724C13.2386 19.0886 13.2182 19.0111 13.2001 18.9397L12.599 16.5355C12.5627 16.3957 12.5449 16.2895 12.5449 16.2165C12.5449 16.1239 12.5779 16.0461 12.6435 15.9825C12.709 15.9193 12.7904 15.8874 12.8873 15.8874C13.0205 15.8874 13.1098 15.9297 13.1559 16.0141C13.2021 16.0985 13.2423 16.221 13.2765 16.382L13.7495 18.4672L14.2791 16.5159C14.3186 16.3667 14.3539 16.253 14.3849 16.1748C14.4158 16.0966 14.4669 16.0294 14.5374 15.9727C14.608 15.916 14.7042 15.8874 14.8258 15.8874C14.9491 15.8874 15.0446 15.917 15.1129 15.9763C15.1811 16.0356 15.2282 16.1001 15.2546 16.1699C15.2809 16.2396 15.3162 16.355 15.3604 16.5159L15.8949 18.4672L16.3678 16.382C16.3909 16.2732 16.4126 16.1878 16.4331 16.1262C16.4535 16.0646 16.4888 16.0092 16.5389 15.9607C16.5889 15.9118 16.6618 15.8877 16.757 15.8877C16.8523 15.8877 16.933 15.919 16.9996 15.9815C17.0662 16.0441 17.0994 16.1223 17.0994 16.2165C17.0994 16.283 17.0813 16.3895 17.0454 16.5355L16.4443 18.9397C16.4031 19.102 16.3691 19.2209 16.3421 19.2965C16.3151 19.3721 16.2689 19.4383 16.204 19.495C16.1391 19.5517 16.0475 19.5803 15.9292 19.5803C15.8175 19.5803 15.7281 19.5526 15.6606 19.4976C15.5934 19.4425 15.5466 19.3803 15.5202 19.3112C15.4938 19.2421 15.4582 19.1238 15.4104 18.9563Z" fill="#2E2E2E" stroke="#2E2E2E" stroke-width="0.3"/>
<path d="M20.3303 18.4473C20.3303 18.6634 20.274 18.8572 20.1616 19.0296C20.0492 19.202 19.8844 19.3366 19.6676 19.434C19.4507 19.5314 19.1937 19.5803 18.8964 19.5803C18.5402 19.5803 18.2459 19.5138 18.0145 19.3806C17.8504 19.2848 17.7169 19.157 17.6141 18.997C17.5116 18.837 17.4602 18.6816 17.4602 18.5304C17.4602 18.4427 17.4909 18.3675 17.5525 18.3052C17.6141 18.2427 17.6925 18.2114 17.7878 18.2114C17.8649 18.2114 17.9302 18.2358 17.9835 18.2844C18.0369 18.3333 18.0824 18.4053 18.1203 18.5011C18.1665 18.6148 18.2159 18.7096 18.2693 18.7862C18.3227 18.8625 18.3978 18.9253 18.4947 18.9749C18.5916 19.0244 18.7188 19.0492 18.8767 19.0492C19.0935 19.0492 19.2695 18.9993 19.4049 18.8993C19.5404 18.7996 19.6083 18.6748 19.6083 18.5255C19.6083 18.4069 19.5717 18.3108 19.4985 18.2368C19.4254 18.1628 19.3311 18.1065 19.2151 18.0674C19.0994 18.0283 18.9445 17.9869 18.7508 17.9432C18.4914 17.8832 18.2742 17.8129 18.0992 17.7324C17.9242 17.6519 17.7855 17.5424 17.683 17.4036C17.5805 17.2648 17.5291 17.0921 17.5291 16.8858C17.5291 16.6893 17.5831 16.5146 17.6916 16.3621C17.8 16.2096 17.9569 16.092 18.1622 16.0102C18.3675 15.9281 18.6091 15.887 18.8865 15.887C19.1083 15.887 19.3001 15.9141 19.462 15.9685C19.6238 16.0229 19.7579 16.0952 19.8647 16.1852C19.9715 16.2754 20.0496 16.3699 20.0987 16.469C20.1481 16.5681 20.1725 16.6649 20.1725 16.759C20.1725 16.8451 20.1418 16.9226 20.0802 16.9917C20.0186 17.0608 19.9418 17.0953 19.8498 17.0953C19.7661 17.0953 19.7025 17.0745 19.659 17.0331C19.6155 16.9917 19.5684 16.9239 19.5173 16.8297C19.4517 16.6948 19.3726 16.5899 19.2807 16.5143C19.1887 16.4387 19.0408 16.4009 18.8371 16.4009C18.6483 16.4009 18.496 16.442 18.38 16.5241C18.2643 16.6062 18.2063 16.7046 18.2063 16.82C18.2063 16.8913 18.2261 16.9532 18.2653 17.0051C18.3049 17.0569 18.3589 17.1018 18.4278 17.139C18.4967 17.1765 18.5665 17.2055 18.6371 17.2266C18.7076 17.2478 18.8243 17.2784 18.9871 17.3192C19.1907 17.3664 19.3749 17.4182 19.5401 17.4749C19.7052 17.5316 19.8456 17.6007 19.9612 17.6819C20.0769 17.763 20.1672 17.8656 20.2321 17.9901C20.2977 18.1149 20.3303 18.2671 20.3303 18.4473Z" fill="#2E2E2E" stroke="#2E2E2E" stroke-width="0.3"/>
</svg>
