<svg width="24" height="25" viewBox="0 0 24 25" fill="none" xmlns="http://www.w3.org/2000/svg">
<path d="M20.9953 21.3367V9.00982C20.9953 8.82584 20.8461 8.67667 20.6621 8.67667H17.3305C17.1466 8.67667 16.9974 8.82584 16.9974 9.00982V21.3367H16.3311V13.674C16.3311 13.4901 16.1819 13.3409 15.9979 13.3409H12.6663C12.4823 13.3409 12.3332 13.4901 12.3332 13.674V21.3367H11.6668V10.3425C11.6668 10.1585 11.5177 10.0093 11.3337 10.0093H8.0021C7.81811 10.0093 7.66894 10.1585 7.66894 10.3425V21.3367H7.00263V15.0067C7.00263 14.8227 6.85345 14.6735 6.66947 14.6735H3.33788C3.1539 14.6735 3.00472 14.8227 3.00472 15.0067V21.3367H2.00525V22.003H21.9948V21.3367H20.9953ZM6.33631 21.3367H3.67104V15.3398H6.33631V21.3367ZM11.0005 21.3367H8.33526V10.6756H11.0005V21.3367ZM15.6647 21.3367H12.9995V14.0072H15.6647V21.3367ZM20.329 21.3367H17.6637V9.34298H20.329V21.3367Z" fill="#2E2E2E" stroke="#2E2E2E" stroke-width="0.4"/>
<path d="M4.08501 11.0657C4.35753 11.2459 4.67703 11.342 5.00373 11.3419C5.92371 11.3419 6.66948 10.5961 6.66944 9.67605C6.66944 9.34947 6.57341 9.03005 6.39334 8.75761L8.75143 6.39918C9.02171 6.58005 9.33942 6.67695 9.66462 6.6777C9.76269 6.67774 9.86056 6.66917 9.95713 6.65205C10.2741 6.5965 10.5679 6.44966 10.8027 6.22961L12.7793 7.74914C12.4494 8.60794 12.8781 9.5716 13.7369 9.90151C14.5957 10.2314 15.5594 9.80269 15.8893 8.94389C16.0828 8.44024 16.0204 7.87408 15.7218 7.42464L18.0792 5.06722C18.8487 5.57653 19.8853 5.3656 20.3946 4.59613C20.9039 3.82666 20.693 2.78999 19.9235 2.28072C19.1541 1.7714 18.1174 1.98233 17.6081 2.75181C17.2381 3.31089 17.2381 4.03705 17.6081 4.59613L15.2507 6.95356C14.5904 6.51712 13.7142 6.60553 13.1545 7.16511C13.1481 7.17144 13.1445 7.17877 13.1385 7.18477L11.1905 5.68756C11.5647 4.84708 11.1867 3.86243 10.3462 3.48825C9.5057 3.11407 8.52105 3.49208 8.14688 4.33256C7.91546 4.85241 7.96539 5.45447 8.27935 5.92905L5.92225 8.28648C5.15478 7.77912 4.12136 7.99001 3.61401 8.75749C3.10669 9.52496 3.31754 10.5584 4.08501 11.0657ZM18.9964 2.6798C19.5484 2.6798 19.9959 3.12728 19.9959 3.67928C19.9959 4.23128 19.5484 4.67875 18.9964 4.67875C18.4444 4.67875 17.9969 4.23128 17.9969 3.67928C17.9969 3.12728 18.4444 2.6798 18.9964 2.6798ZM13.6251 7.63699C13.8126 7.44938 14.0669 7.34398 14.3322 7.34402C14.8842 7.34394 15.3317 7.79137 15.3318 8.34337C15.3318 8.60861 15.2264 8.86297 15.0388 9.05046C14.6432 9.42755 14.0212 9.42755 13.6255 9.05046C13.2351 8.66025 13.2349 8.02741 13.6251 7.63699ZM8.8493 4.43867L8.84938 4.43855C9.00089 4.22091 9.2331 4.07286 9.49438 4.02743C9.55239 4.01747 9.61111 4.01248 9.66995 4.01244C9.87447 4.01264 10.0739 4.07582 10.2413 4.19334C10.6935 4.51001 10.8033 5.13322 10.4866 5.58536C10.17 6.0375 9.54677 6.14732 9.09463 5.83069C8.64249 5.51402 8.53263 4.89081 8.8493 4.43867ZM4.29665 8.96962C4.29681 8.96946 4.29694 8.96933 4.29711 8.96917C4.68757 8.57891 5.32044 8.57904 5.7107 8.9695C6.10095 9.35996 6.10082 9.99284 5.71036 10.3831C5.31474 10.7602 4.69273 10.7602 4.29711 10.3831C3.90664 9.99288 3.90648 9.36005 4.29665 8.96962Z" fill="#2E2E2E" stroke="#2E2E2E" stroke-width="0.4"/>
</svg>
