<svg width="30" height="30" viewBox="0 0 30 30" fill="none" xmlns="http://www.w3.org/2000/svg">
<path d="M5.40967 14.7119C5.40967 14.9615 5.49607 15.1727 5.66887 15.3455C5.84167 15.5183 6.05287 15.6047 6.30247 15.6047H23.0929C23.3425 15.6047 23.5585 15.5183 23.7409 15.3455C23.9233 15.1727 24.0145 14.9567 24.0145 14.6975C24.0145 14.4383 23.9281 14.2223 23.7553 14.0495C23.5825 13.8767 23.3617 13.7903 23.0929 13.7903H6.30247C6.05287 13.7903 5.84167 13.8815 5.66887 14.0639C5.49607 14.2463 5.40967 14.4623 5.40967 14.7119ZM12.9265 8.05913C12.7537 7.88633 12.5425 7.79993 12.2929 7.79993C12.0433 7.79993 11.8321 7.88633 11.6593 8.05913L5.66887 14.0495C5.49607 14.2415 5.40967 14.4575 5.40967 14.6975C5.40967 14.9375 5.49607 15.1487 5.66887 15.3311C5.84167 15.5135 6.05287 15.6047 6.30247 15.6047C6.55207 15.6047 6.76327 15.5183 6.93607 15.3455L12.9265 9.32633C13.1185 9.15353 13.2145 8.94233 13.2145 8.69273C13.2145 8.44313 13.1185 8.23193 12.9265 8.05913ZM5.66887 14.0495C5.49607 14.2415 5.40967 14.4575 5.40967 14.6975C5.40967 14.9375 5.49607 15.1535 5.66887 15.3455L11.6593 21.3359C11.8321 21.5087 12.0433 21.5951 12.2929 21.5951C12.5425 21.5951 12.7585 21.5087 12.9409 21.3359C13.1233 21.1631 13.2145 20.9519 13.2145 20.7023C13.2145 20.4527 13.1185 20.2415 12.9265 20.0687L6.93607 14.0495C6.76327 13.8767 6.55207 13.7903 6.30247 13.7903C6.05287 13.7903 5.84167 13.8767 5.66887 14.0495Z" fill="#EFF3FC"/>
</svg>
